<svg xmlns="http://www.w3.org/2000/svg" viewBox="0 0 192 192" role="img" aria-label="Buddy logo">
  <defs>
    <linearGradient id="buddy-bg" x1="38" y1="22" x2="154" y2="170" gradientUnits="userSpaceOnUse">
      <stop offset="0" stop-color="#ffd36e" />
      <stop offset="1" stop-color="#f1b84b" />
    </linearGradient>
  </defs>
  <rect width="192" height="192" rx="48" fill="url(#buddy-bg)" />
  <path
    fill="#fffdf5"
    fill-rule="evenodd"
    stroke="#16202a"
    stroke-linejoin="round"
    stroke-width="13"
    d="M54 44C54 35.2 61.2 28 70 28h27c28 0 47 15 47 38 0 15-8.2 26-22 31 17 5 28 18 28 36 0 24-20 40-52 40H70c-8.8 0-16-7.2-16-16V44Zm25 18v25h14.5C105.5 87 113 82 113 74.2 113 66.5 105.5 62 93.5 62H79Zm0 57v28h17c13.2 0 21-5.4 21-14.2 0-8.5-7.9-13.8-21-13.8H79Z"
  />
</svg>
